<?xml version="1.0" encoding="iso-8859-1"?>
<!-- Generator: Adobe Illustrator 19.0.0, SVG Export Plug-In . SVG Version: 6.00 Build 0)  -->
<svg version="1.1" id="Layer_1" xmlns="http://www.w3.org/2000/svg" xmlns:xlink="http://www.w3.org/1999/xlink" x="0px" y="0px"
	 viewBox="0 0 512 512" style="enable-background:new 0 0 512 512;" xml:space="preserve">
<path style="fill:#315C7C;" d="M406.995,11.13H127.266c-8.416,0-15.238,6.822-15.238,15.238v140.589h66.783V93.151
	c0-8.416,6.822-15.238,15.238-15.238h145.588c9.165,0,16.257,8.033,15.12,17.128l-40.712,325.699
	c-0.953,7.625-7.435,13.348-15.12,13.348H194.05c-8.416,0-15.238-6.822-15.238-15.238V256H112.03v229.632
	c0,8.416,6.822,15.238,15.238,15.238h40.785h66.783h130.41c7.881,0,14.462-6.009,15.175-13.858l41.751-459.264
	C422.981,18.824,415.955,11.13,406.995,11.13z"/>
<rect x="89.767" y="166.957" style="fill:#FAEE1C;" width="111.304" height="89.043"/>
<g>
	<rect x="112.027" y="122.435" style="fill:#20B0B7;" width="66.783" height="44.522"/>
	<rect x="112.027" y="256" style="fill:#20B0B7;" width="66.783" height="44.522"/>
</g>
<rect x="89.767" y="211.478" style="fill:#28CC9E;" width="111.304" height="44.522"/>
<path d="M426.467,8.588C421.482,3.131,414.385,0,406.995,0H127.266c-14.54,0-26.368,11.828-26.368,26.368v96.067v33.391h-11.13
	c-6.146,0-11.13,4.983-11.13,11.13v44.522V256c0,6.147,4.984,11.13,11.13,11.13h11.13v33.391v185.11
	c0,14.54,11.829,26.368,26.368,26.368h40.785c6.146,0,11.13-4.983,11.13-11.13c0-6.147-4.984-11.13-11.13-11.13h-40.785
	c-2.265,0-4.107-1.842-4.107-4.107v-173.98h44.522v107.197c0,14.54,11.829,26.368,26.368,26.368h104.877
	c13.27,0,24.518-9.929,26.164-23.098l40.712-325.698c0.938-7.502-1.394-15.054-6.397-20.722c-5.003-5.668-12.208-8.918-19.768-8.918
	H194.049c-14.54,0-26.368,11.828-26.368,26.368v18.154h-44.522V26.368c0-2.265,1.842-4.107,4.107-4.107h279.729
	c1.576,0,2.577,0.838,3.034,1.338c0.455,0.5,1.199,1.572,1.056,3.141l-41.751,459.264c-0.194,2.129-1.952,3.734-4.09,3.734h-130.41
	c-6.146,0-11.13,4.983-11.13,11.13c0,6.147,4.984,11.13,11.13,11.13h130.41c13.728,0,25.018-10.31,26.26-23.981l41.751-459.263
	C433.924,21.397,431.45,14.045,426.467,8.588z M112.029,178.087h66.783h11.13v22.261h-89.043v-22.261H112.029z M178.811,244.87
	h-66.783h-11.13v-22.261h89.043v22.261H178.811z M123.159,289.391V267.13h44.522v22.261H123.159z M189.942,93.151
	c0-2.265,1.842-4.107,4.107-4.107h145.588c1.612,0,2.62,0.87,3.079,1.389c0.459,0.519,1.197,1.627,0.997,3.228l-40.712,325.699
	c-0.256,2.051-2.009,3.597-4.075,3.597H194.05c-2.265,0-4.107-1.842-4.107-4.107V300.522V267.13h11.13
	c6.146,0,11.13-4.983,11.13-11.13v-44.522v-44.522c0-6.147-4.984-11.13-11.13-11.13h-11.13v-33.391V93.151H189.942z
	 M167.681,133.565v22.261h-44.522v-22.261H167.681z"/>
<path d="M211.344,496.618c-0.278-0.679-0.623-1.325-1.024-1.926c-0.4-0.612-0.867-1.18-1.38-1.692
	c-0.512-0.512-1.08-0.979-1.692-1.38c-0.601-0.401-1.247-0.746-1.926-1.024c-0.668-0.278-1.368-0.49-2.08-0.634
	c-3.617-0.735-7.457,0.456-10.041,3.039c-0.512,0.512-0.979,1.08-1.38,1.692c-0.4,0.601-0.746,1.247-1.024,1.926
	c-0.278,0.668-0.501,1.369-0.633,2.081c-0.146,0.712-0.223,1.447-0.223,2.17s0.077,1.458,0.223,2.182
	c0.132,0.701,0.355,1.402,0.633,2.081c0.278,0.668,0.624,1.313,1.024,1.914c0.401,0.612,0.868,1.18,1.38,1.692
	c2.07,2.07,4.942,3.261,7.869,3.261c0.722,0,1.458-0.078,2.17-0.223c0.712-0.145,1.414-0.356,2.08-0.634
	c0.679-0.278,1.325-0.623,1.926-1.024c0.612-0.401,1.18-0.868,1.692-1.38c0.513-0.512,0.981-1.08,1.38-1.692
	c0.401-0.601,0.746-1.247,1.024-1.914c0.278-0.679,0.501-1.38,0.634-2.081c0.145-0.723,0.223-1.458,0.223-2.182
	s-0.078-1.458-0.223-2.17C211.846,497.987,211.623,497.286,211.344,496.618z"/>
<g>
</g>
<g>
</g>
<g>
</g>
<g>
</g>
<g>
</g>
<g>
</g>
<g>
</g>
<g>
</g>
<g>
</g>
<g>
</g>
<g>
</g>
<g>
</g>
<g>
</g>
<g>
</g>
<g>
</g>
</svg>
