<?xml version="1.0" encoding="iso-8859-1"?>
<!-- Generator: Adobe Illustrator 19.0.0, SVG Export Plug-In . SVG Version: 6.00 Build 0)  -->
<svg version="1.1" id="Layer_1" xmlns="http://www.w3.org/2000/svg" xmlns:xlink="http://www.w3.org/1999/xlink" x="0px" y="0px"
	 viewBox="0 0 512 512" style="enable-background:new 0 0 512 512;" xml:space="preserve">
<path style="fill:#7A797E;" d="M332.475,133.85l50.571,135.092l0.351,0.073l-0.116,0.553l-2.893,13.793L334.047,504.35
	l-80.816-69.41c-9.784-8.403-11.25-23.007-3.333-33.187l0,0c8.811-11.33,25.495-12.533,35.843-2.588l22.312,21.446l30.969-147.682
	l-42.675-114.001L332.475,133.85z"/>
<path style="fill:#D8D7D9;" d="M255.501,93.542L95.153,218.987c-6.078,6.275-16.009-1.597-11.287-8.947L207.973,16.874
	l55.346,14.495L290.992,7.65l138.364,65.887l-52.71,39.532l-41.49-11.3"/>
<circle style="fill:#403E43;" cx="293.591" cy="114.46" r="43.449"/>
<circle style="fill:#7A797E;" cx="293.591" cy="114.46" r="15.433"/>
<path style="fill:#FFCF9B;" d="M308.053,420.611l-22.312-21.447c-10.347-9.945-27.03-8.742-35.843,2.588l0,0
	c-7.919,10.181-6.452,24.784,3.333,33.187l80.816,69.41l35.509-169.336l-36.882-31.813L308.053,420.611z"/>
<g style="opacity:0.16;">
	<path style="fill:#403E43;" d="M370.466,235.338l-2.451,11.691l-27.093,129.201l-3.633,17.326l-15.614,74.462l-59.873-51.423
		l-13.841-11.888c-0.408,0.73-0.784,1.473-1.115,2.23c-0.447,1.021-0.845,2.057-1.141,3.115c-1.44,5.131-1.136,10.6,0.825,15.518
		c1.401,3.513,3.646,6.745,6.703,9.37l20.943,17.988l59.873,51.424l15.614-74.462l3.633-17.326l27.093-129.201l2.892-13.793
		l0.116-0.553l-0.351-0.073L370.466,235.338z"/>
	<path style="fill:#403E43;" d="M244.842,101.881l-124.5,51.387L83.867,210.04c-4.723,7.35,5.207,15.222,11.287,8.947
		L244.842,101.881"/>
</g>
<path d="M436.967,72.777c-0.266-2.664-1.905-4.995-4.323-6.147L294.28,0.743c-2.728-1.299-5.971-0.871-8.268,1.099l-24.631,21.112
	l-51.47-13.479c-3.209-0.845-6.584,0.479-8.375,3.265L77.43,205.905c-4.222,6.57-2.844,14.861,3.276,19.714
	c2.789,2.21,6.048,3.299,9.285,3.299c3.679,0,7.33-1.408,10.223-4.177l142.303-111.326c-0.007,0.35-0.027,0.696-0.027,1.047
	c0,27.18,21.334,49.465,48.135,51.007l40.453,108.063l-5.876,28.024c-0.002,0.012-0.005,0.023-0.007,0.036l-9.07,43.252
	c-0.003,0.015-0.006,0.031-0.01,0.047l-12.716,60.637l-12.356-11.877c-6.492-6.24-15.364-9.45-24.348-8.799
	c-8.983,0.648-17.305,5.096-22.835,12.206c-10.438,13.42-8.512,32.61,4.386,43.688l80.817,69.41c1.409,1.21,3.183,1.847,4.986,1.847
	c0.824,0,1.655-0.134,2.458-0.406c2.561-0.869,4.473-3.026,5.029-5.675l35.493-169.258c0.002-0.011,0.005-0.022,0.007-0.034
	l10.84-51.695l3.009-14.351c0.466-2.231-0.091-4.438-1.353-6.134l-48.785-130.321c2.536-6.057,3.941-12.701,3.941-19.667
	c0-0.731-0.024-1.457-0.055-2.18l30.001,8.171c2.276,0.62,4.713,0.155,6.601-1.261l52.71-39.533
	C436.087,78.05,437.234,75.441,436.967,72.777z M257.791,114.461c0-19.74,16.059-35.8,35.799-35.8c19.74,0,35.8,16.06,35.8,35.8
	s-16.06,35.799-35.8,35.799C273.85,150.26,257.791,134.2,257.791,114.461z M355.653,364.043l-23.643-20.395l5.491-26.182
	l23.643,20.394L355.653,364.043z M346.903,405.77l-23.644-20.395l5.162-24.616l23.568,20.33c0.024,0.021,0.051,0.039,0.077,0.06
	L346.903,405.77z M329.215,490.115l-71-60.979c-6.698-5.753-7.698-15.718-2.278-22.687c2.913-3.746,7.125-5.997,11.859-6.339
	c4.728-0.342,9.222,1.281,12.643,4.569l22.312,21.446c2.006,1.928,4.899,2.614,7.557,1.795c2.657-0.819,4.661-3.018,5.232-5.741
	l4.13-19.695l22.824,19.687c0.267,0.232,0.55,0.433,0.838,0.62L329.215,490.115z M375.337,270.171l-10.607,50.58l-23.643-20.394
	l5.423-25.858c0.297-1.42,0.186-2.894-0.322-4.252l-39.797-106.311c9.253-2.395,17.487-7.333,23.933-14.007L375.337,270.171z
	 M375.047,104.705l-34.046-9.272c-7.564-18.778-25.958-32.072-47.411-32.072c-18.662,0-35.011,10.061-43.931,25.038L91.733,211.949
	L211.408,25.682l49.971,13.087c2.427,0.638,5.012,0.042,6.917-1.592l23.897-20.482l122.453,58.31L375.047,104.705z"/>
<path d="M316.674,114.461c0-12.729-10.356-23.085-23.085-23.085s-23.084,10.356-23.084,23.085s10.355,23.084,23.084,23.084
	S316.674,127.189,316.674,114.461z M285.807,114.461c0-4.292,3.492-7.784,7.783-7.784c4.292,0,7.784,3.492,7.784,7.784
	c0,4.291-3.492,7.783-7.784,7.783C289.298,122.244,285.807,118.752,285.807,114.461z"/>
<g>
</g>
<g>
</g>
<g>
</g>
<g>
</g>
<g>
</g>
<g>
</g>
<g>
</g>
<g>
</g>
<g>
</g>
<g>
</g>
<g>
</g>
<g>
</g>
<g>
</g>
<g>
</g>
<g>
</g>
</svg>
